<?xml version="1.0" standalone="no"?>
<!DOCTYPE svg PUBLIC "-//W3C//DTD SVG 20010904//EN"
 "http://www.w3.org/TR/2001/REC-SVG-20010904/DTD/svg10.dtd">
<svg version="1.0" xmlns="http://www.w3.org/2000/svg"
 width="800.000000pt" height="800.000000pt" viewBox="0 0 800.000000 800.000000"
 preserveAspectRatio="xMidYMid meet">
<metadata>
Created by potrace 1.14, written by Peter Selinger 2001-2017
</metadata>
<g transform="translate(0.000000,800.000000) scale(0.100000,-0.100000)"
fill="#000000" stroke="none">
<path d="M4014 7455 c-32 -19 -114 -125 -97 -125 5 0 3 -4 -2 -8 -6 -4 -24
-29 -40 -57 -17 -27 -34 -58 -40 -67 -26 -44 -187 -315 -195 -328 -30 -47
-110 -182 -110 -185 0 -1 -29 -50 -65 -109 -36 -58 -65 -110 -65 -115 0 -5 -6
-13 -13 -20 -18 -14 -12 -104 9 -139 42 -73 159 -99 228 -51 19 13 51 53 72
89 21 36 46 76 55 90 9 14 103 171 209 350 106 179 200 336 209 350 68 106 90
159 86 207 -9 114 -141 179 -241 118z"/>
<path d="M4495 6646 c-37 -16 -79 -65 -120 -136 -16 -30 -43 -74 -58 -99 -15
-25 -33 -56 -39 -68 -6 -13 -15 -23 -20 -23 -4 0 -8 -4 -8 -9 0 -9 -54 -103
-130 -226 -14 -22 -34 -56 -45 -76 -11 -20 -85 -144 -165 -275 -80 -131 -149
-247 -155 -256 -5 -10 -34 -56 -62 -103 -29 -48 -53 -91 -53 -96 0 -5 -4 -9
-10 -9 -5 0 -10 -4 -10 -8 0 -5 -38 -71 -84 -148 -182 -298 -190 -314 -190
-366 1 -53 30 -106 74 -132 36 -21 108 -26 146 -10 36 15 89 74 119 131 11 21
22 40 25 43 4 3 23 34 43 70 21 36 49 83 62 105 14 22 34 56 45 75 11 19 30
51 43 71 12 20 59 99 105 175 46 76 144 238 217 359 73 121 157 261 186 310
29 50 56 92 59 95 4 3 9 10 11 15 13 34 65 115 72 112 5 -1 24 -32 44 -67 19
-36 52 -97 74 -137 21 -39 39 -76 39 -82 0 -6 -34 -71 -77 -144 -42 -72 -81
-141 -87 -152 -6 -11 -16 -27 -22 -35 -7 -8 -25 -39 -40 -68 -16 -29 -34 -61
-39 -70 -24 -39 -39 -67 -40 -72 0 -3 -8 -16 -17 -30 -9 -14 -56 -95 -106
-180 -49 -85 -124 -216 -167 -290 -43 -74 -83 -144 -89 -155 -6 -11 -13 -22
-16 -25 -3 -3 -16 -25 -29 -50 -13 -25 -64 -112 -112 -195 -48 -82 -97 -168
-109 -190 -13 -22 -31 -53 -41 -70 -10 -16 -23 -39 -29 -50 -6 -11 -22 -41
-38 -67 -68 -117 -200 -346 -231 -402 -19 -34 -37 -63 -40 -66 -3 -3 -14 -21
-25 -40 -33 -62 -66 -120 -234 -410 -124 -214 -167 -295 -170 -327 -10 -108
96 -191 208 -161 53 15 77 42 139 151 10 18 33 59 52 92 18 33 39 66 46 73 7
7 13 18 13 23 0 5 20 43 45 83 25 41 45 79 45 85 0 6 5 11 10 11 6 0 10 4 10
10 0 5 26 54 58 107 32 54 61 105 65 113 4 8 13 24 20 35 7 11 31 54 55 95 23
41 47 82 52 90 5 8 42 71 81 140 40 69 80 139 90 155 11 17 23 39 29 50 5 11
30 54 55 95 24 41 50 87 56 103 6 15 15 27 20 27 5 0 9 5 9 10 0 6 45 88 100
181 55 94 100 173 100 176 0 2 16 29 35 59 19 30 35 57 35 59 0 3 18 35 40 71
22 36 40 68 40 70 0 2 25 44 55 94 30 50 55 92 55 94 0 1 61 108 135 236 74
128 135 236 135 241 0 5 4 9 9 9 5 0 11 8 14 18 3 9 19 40 35 67 158 269 157
268 157 325 0 49 -7 68 -61 165 -34 61 -76 137 -94 170 -55 101 -102 187 -131
240 -15 28 -37 68 -49 90 -55 102 -138 139 -225 101z"/>
<path d="M3135 5944 c-51 -17 -67 -34 -132 -143 -32 -53 -63 -105 -70 -116 -7
-11 -16 -27 -20 -35 -4 -8 -20 -34 -35 -56 -15 -23 -28 -45 -28 -48 0 -4 -12
-25 -27 -49 -14 -23 -36 -58 -48 -77 -34 -54 -169 -282 -178 -300 -12 -26
-395 -664 -404 -675 -5 -5 -16 -25 -23 -42 -8 -18 -18 -33 -21 -33 -3 0 -14
-18 -24 -40 -10 -22 -22 -40 -27 -40 -4 0 -8 -4 -8 -10 0 -5 -41 -79 -91 -162
-105 -175 -117 -201 -114 -243 5 -61 32 -103 88 -133 62 -33 150 -16 195 38
11 14 141 227 168 275 6 11 62 106 125 210 62 105 119 199 125 210 6 11 66
111 133 223 66 111 121 207 121 212 0 6 4 10 9 10 5 0 11 6 13 13 2 6 32 61
68 120 36 59 70 116 75 125 73 126 141 238 147 240 5 2 8 7 8 12 0 4 41 76 90
159 105 176 115 211 78 280 -13 24 -33 49 -43 55 -11 6 -23 15 -26 19 -10 14
-86 15 -124 1z"/>
<path d="M5285 5340 c-34 -11 -85 -52 -85 -69 0 -6 -4 -11 -9 -11 -5 0 -11 -8
-14 -17 -4 -10 -18 -38 -33 -63 -15 -25 -35 -58 -44 -75 -10 -16 -64 -109
-120 -205 -56 -96 -114 -195 -128 -220 -14 -25 -33 -57 -43 -72 -11 -14 -19
-28 -19 -31 0 -2 -52 -93 -115 -201 -63 -109 -115 -199 -115 -201 0 -2 -13
-24 -30 -48 -16 -25 -30 -50 -30 -56 0 -6 -4 -11 -8 -11 -4 0 -8 -8 -9 -17 -1
-10 -4 -30 -6 -44 -6 -33 23 -97 57 -126 28 -25 88 -42 125 -36 65 10 108 52
167 163 11 19 21 37 24 40 3 3 11 16 19 30 28 48 189 326 238 410 27 47 56 96
64 110 8 14 19 28 24 32 6 4 7 8 3 8 -4 0 11 28 33 63 21 34 44 73 49 86 6 13
19 34 30 48 l19 24 26 -50 c14 -28 34 -67 45 -86 11 -20 20 -42 20 -50 0 -8 3
-15 8 -15 4 0 20 -27 37 -61 16 -33 32 -62 36 -65 7 -4 -41 -98 -99 -194 -12
-19 -28 -48 -36 -65 -8 -16 -28 -52 -45 -80 -16 -27 -42 -72 -57 -100 -14 -27
-34 -61 -44 -75 -10 -14 -20 -35 -24 -47 -4 -11 -13 -27 -21 -33 -8 -7 -15
-21 -15 -31 0 -11 -3 -19 -7 -19 -5 0 -24 -30 -43 -68 -19 -37 -37 -69 -40
-72 -3 -3 -11 -16 -18 -29 -19 -33 -44 -78 -77 -136 -15 -27 -62 -111 -104
-185 -43 -74 -81 -142 -84 -150 -4 -8 -21 -37 -37 -65 -17 -27 -35 -59 -40
-70 -6 -11 -24 -42 -41 -70 -17 -27 -35 -62 -42 -77 -6 -16 -15 -28 -19 -28
-4 0 -8 -5 -8 -11 0 -6 -24 -52 -54 -102 -29 -51 -65 -113 -80 -139 -40 -74
-77 -139 -99 -178 -11 -19 -37 -64 -57 -100 -20 -36 -46 -81 -57 -100 -45 -79
-237 -419 -267 -475 -6 -11 -13 -22 -16 -25 -5 -5 -16 -25 -69 -125 -14 -27
-28 -52 -31 -55 -3 -3 -12 -18 -20 -35 -8 -16 -17 -32 -21 -35 -5 -5 -28 -46
-104 -185 -15 -27 -31 -54 -35 -60 -4 -5 -21 -35 -37 -65 -79 -147 -178 -316
-187 -322 -6 -4 -7 -8 -2 -8 5 0 4 -6 -2 -12 -23 -29 -85 -146 -97 -184 -15
-49 -1 -100 37 -141 47 -51 60 -53 447 -53 212 0 370 4 386 10 14 5 36 20 49
32 19 18 195 309 229 378 4 8 13 24 20 35 7 11 43 74 82 140 38 66 74 123 80
127 5 4 6 8 2 8 -5 0 1 13 12 29 12 16 21 33 21 37 0 4 7 15 15 24 21 24 21
99 0 144 -11 23 -34 46 -62 63 -38 22 -52 25 -95 20 -64 -8 -109 -43 -146
-112 -15 -27 -30 -52 -33 -55 -3 -3 -12 -17 -20 -32 -11 -22 -120 -213 -237
-413 -9 -16 -19 -32 -22 -35 -3 -3 -15 -23 -26 -45 l-22 -40 -137 0 c-75 -1
-138 2 -140 5 -4 7 4 24 45 95 135 237 280 497 280 501 0 3 5 10 10 17 17 19
280 488 280 498 0 5 5 9 10 9 6 0 10 4 10 9 0 5 32 64 70 131 39 67 70 124 70
126 0 3 16 29 35 59 19 30 32 55 28 55 -3 0 1 8 9 18 8 9 31 46 51 82 19 36
49 89 66 118 17 29 31 55 31 58 0 3 8 18 19 32 10 15 33 54 50 87 18 33 43 78
57 100 13 22 31 54 40 70 8 17 23 44 32 60 10 17 44 77 77 135 33 57 65 112
70 122 6 9 25 45 44 80 18 35 40 70 47 79 8 8 14 18 14 21 0 3 28 54 62 114
34 60 71 126 82 146 12 21 57 101 101 179 44 78 92 165 108 192 15 28 31 55
36 61 4 6 27 47 51 91 24 44 47 85 51 91 10 12 48 81 85 155 13 26 24 61 24
78 0 30 -189 413 -368 744 -40 75 -120 110 -197 87z"/>
<path d="M3049 4236 c-36 -16 -71 -54 -110 -120 -18 -32 -44 -75 -56 -95 -13
-20 -39 -63 -59 -96 -19 -33 -51 -85 -70 -115 -19 -30 -39 -64 -45 -75 -12
-23 -24 -44 -62 -102 -15 -24 -27 -45 -27 -48 0 -4 -13 -26 -30 -50 -16 -24
-30 -48 -30 -54 0 -6 -4 -11 -10 -11 -5 0 -10 -4 -10 -9 0 -6 -26 -52 -59
-104 -32 -52 -60 -98 -62 -103 -3 -7 -111 -185 -159 -264 -57 -91 -110 -183
-110 -190 0 -5 -3 -10 -8 -12 -9 -4 -112 -176 -112 -188 0 -5 -3 -10 -8 -12
-4 -1 -27 -37 -52 -78 -24 -41 -48 -78 -53 -81 -5 -3 -9 -10 -9 -15 -1 -5 -12
-26 -25 -47 -13 -21 -32 -53 -42 -70 -62 -108 -327 -543 -334 -548 -5 -3 -9
-10 -10 -15 0 -5 -9 -22 -19 -39 -10 -16 -62 -103 -115 -192 -54 -89 -131
-217 -172 -285 -68 -114 -118 -195 -149 -243 -7 -11 -15 -28 -18 -37 -4 -10
-10 -18 -15 -18 -5 0 -9 -6 -9 -14 0 -8 -7 -16 -15 -20 -22 -8 -535 -7 -535 2
0 7 202 349 217 367 4 6 19 30 32 55 14 25 32 56 41 70 9 14 21 34 27 45 7 11
42 71 80 134 37 63 70 119 72 125 2 5 8 15 13 21 10 11 258 426 258 431 0 2
16 28 35 59 20 30 35 58 34 61 0 4 3 10 8 13 8 5 56 83 76 121 4 8 18 33 32
55 80 128 91 179 54 245 -55 98 -201 107 -269 16 -16 -22 -110 -177 -110 -182
0 -2 -22 -38 -49 -81 -26 -43 -121 -202 -211 -353 -89 -151 -172 -291 -185
-310 -12 -19 -34 -54 -48 -77 -15 -24 -27 -45 -27 -48 0 -3 -16 -31 -35 -61
-19 -30 -35 -59 -35 -64 0 -6 -4 -10 -10 -10 -5 0 -10 -5 -10 -10 0 -6 -12
-29 -27 -53 -15 -23 -32 -51 -38 -62 -13 -24 -103 -176 -127 -213 -9 -15 -29
-51 -45 -79 -15 -29 -31 -53 -35 -53 -4 0 -8 -4 -8 -9 0 -6 -35 -68 -77 -138
-63 -104 -78 -136 -79 -173 -3 -69 31 -123 96 -152 32 -14 980 -18 1027 -5 17
6 43 19 57 31 20 17 169 252 266 421 9 17 36 62 60 100 24 39 48 79 54 90 36
65 102 170 108 173 5 2 8 8 8 12 0 5 41 75 90 156 50 80 90 150 90 155 0 5 5
9 10 9 6 0 10 4 10 10 0 5 83 147 185 315 102 168 185 310 185 316 0 5 4 9 8
9 5 0 16 15 26 33 19 37 12 25 131 222 50 83 93 152 98 153 4 2 7 8 7 13 0 5
12 28 28 52 15 23 29 47 32 52 3 6 33 57 68 115 35 58 69 114 75 125 7 11 27
43 45 71 17 28 32 56 32 63 0 6 5 11 10 11 6 0 10 4 10 9 0 5 23 46 50 90 28
44 50 85 50 90 0 5 3 11 8 13 7 3 72 105 72 114 0 3 5 10 10 17 13 14 161 260
220 363 47 83 52 138 20 192 -39 64 -135 96 -201 68z"/>
<path d="M5985 4047 c-16 -7 -37 -19 -46 -28 -16 -16 -81 -122 -155 -252 -22
-38 -47 -83 -58 -100 -17 -30 -310 -535 -384 -662 -19 -33 -45 -78 -57 -100
-12 -22 -44 -76 -70 -120 -27 -44 -61 -105 -78 -135 -16 -30 -36 -62 -43 -71
-8 -8 -14 -19 -14 -22 0 -4 -18 -36 -40 -72 -22 -36 -40 -70 -40 -75 0 -6 -4
-10 -8 -10 -4 0 -13 -12 -19 -27 -7 -16 -26 -50 -43 -78 -17 -27 -36 -61 -43
-75 -6 -14 -14 -27 -18 -30 -29 -24 -43 -112 -24 -158 38 -89 137 -124 223
-80 45 23 54 36 185 259 76 128 140 241 144 249 4 8 30 55 60 103 29 49 53 90
53 93 0 2 11 23 26 45 14 22 33 55 43 72 10 18 44 77 76 132 32 55 65 111 73
125 7 14 24 41 35 62 19 31 100 171 176 302 78 136 103 177 105 174 3 -3 52
-93 121 -223 l48 -89 -30 -56 c-16 -30 -79 -143 -140 -250 -60 -107 -125 -222
-143 -255 -18 -33 -42 -75 -52 -93 -10 -18 -36 -66 -58 -105 -22 -40 -45 -79
-50 -87 -6 -8 -15 -26 -20 -39 -6 -13 -19 -36 -30 -51 -11 -15 -17 -30 -13
-34 3 -3 2 -6 -4 -6 -5 0 -20 -22 -33 -50 -13 -27 -28 -50 -33 -50 -6 0 -7 -3
-4 -7 4 -3 3 -11 -2 -17 -7 -9 -97 -167 -256 -451 -15 -27 -79 -142 -143 -255
-63 -113 -128 -230 -145 -260 -16 -30 -45 -81 -63 -113 -19 -32 -34 -62 -34
-68 0 -5 -4 -9 -10 -9 -5 0 -10 -4 -10 -10 0 -5 -26 -56 -57 -112 -32 -57 -59
-110 -60 -118 -5 -27 -5 -55 0 -75 3 -11 6 -23 6 -26 1 -10 71 -84 71 -75 0 5
7 2 16 -5 13 -10 105 -13 454 -14 241 0 452 3 469 7 38 10 91 62 117 114 36
73 69 129 79 136 6 4 6 8 1 8 -5 0 -3 8 5 18 8 9 19 26 25 37 6 11 30 56 54
100 24 44 54 100 68 125 14 25 70 126 124 225 54 99 102 187 108 195 5 8 18
31 28 50 20 37 60 111 124 225 21 39 46 86 56 105 9 19 20 37 23 40 4 3 24 38
45 79 22 41 52 98 67 127 28 53 47 69 47 39 0 -8 5 -15 10 -15 6 0 10 -4 10
-9 0 -5 32 -64 70 -132 39 -67 70 -126 70 -131 0 -4 5 -8 10 -8 6 0 10 -4 10
-9 0 -4 113 -205 250 -446 138 -240 250 -441 250 -445 0 -5 3 -10 8 -12 4 -1
20 -27 35 -55 l28 -53 -480 3 c-265 1 -481 -2 -481 -6 0 -5 -4 -6 -8 -3 -4 2
-26 -5 -47 -17 -109 -62 -104 -223 9 -274 37 -16 87 -18 679 -18 621 0 640 0
678 20 60 32 84 70 84 135 -1 53 -8 67 -169 350 -93 162 -175 305 -182 317 -8
13 -15 26 -15 30 -1 5 -9 19 -19 33 -14 21 -165 281 -241 416 -12 21 -43 76
-70 122 -27 45 -49 87 -49 92 0 6 -4 10 -10 10 -5 0 -10 5 -10 10 0 9 -111
211 -129 235 -5 6 -24 39 -43 75 -72 132 -144 244 -168 262 -41 30 -80 36
-135 23 -58 -15 -93 -51 -141 -141 -67 -131 -99 -189 -105 -194 -3 -3 -16 -25
-28 -50 -25 -49 -37 -71 -92 -170 -20 -36 -50 -90 -67 -120 -16 -30 -76 -138
-132 -240 -57 -102 -112 -202 -122 -223 -11 -20 -24 -40 -29 -43 -5 -3 -7 -9
-4 -14 3 -4 -2 -13 -10 -20 -8 -7 -15 -17 -15 -22 0 -5 -20 -43 -44 -86 -24
-42 -57 -102 -74 -132 -16 -30 -60 -109 -96 -174 -36 -66 -66 -122 -66 -126 0
-4 -9 -19 -20 -33 l-20 -26 -220 1 -220 1 13 21 c8 12 31 52 53 91 21 38 44
79 51 90 7 11 18 31 25 45 7 14 22 41 33 60 12 19 38 64 57 100 20 36 50 90
67 120 18 30 37 67 44 83 6 15 15 27 19 27 4 0 8 4 8 9 0 5 28 57 61 117 34
60 73 129 86 153 13 24 34 62 47 85 133 237 308 549 326 581 12 22 44 78 70
125 26 47 57 101 68 120 11 19 37 67 57 105 21 39 43 77 50 85 6 8 17 30 25
48 7 17 17 32 22 32 5 0 7 4 4 9 -3 5 1 14 9 21 8 7 15 16 15 20 0 4 22 47 49
95 73 130 72 136 -72 395 -13 25 -41 77 -62 115 -118 221 -183 339 -200 366
-31 47 -128 70 -190 46z"/>
<path d="M4254 3596 c-41 -18 -62 -48 -179 -251 -54 -93 -102 -171 -107 -173
-4 -2 -8 -12 -8 -22 0 -10 -4 -21 -9 -25 -6 -3 -16 -18 -24 -33 -7 -15 -82
-143 -165 -285 -84 -143 -152 -261 -152 -263 0 -2 -16 -28 -35 -58 -19 -30
-35 -60 -35 -66 0 -5 -4 -10 -10 -10 -5 0 -10 -4 -10 -9 0 -6 -30 -61 -66
-123 -37 -62 -75 -128 -85 -145 -11 -18 -27 -48 -38 -65 -21 -38 -180 -310
-257 -443 -29 -49 -58 -95 -63 -102 -6 -7 -11 -15 -11 -18 0 -4 -29 -56 -65
-116 -36 -61 -65 -115 -65 -120 0 -5 -4 -9 -10 -9 -5 0 -10 -5 -10 -10 0 -6
-47 -90 -104 -188 l-104 -177 -221 -1 -220 -2 26 47 c15 25 30 51 33 56 4 6
19 30 32 55 14 25 58 101 98 170 40 68 81 138 90 155 107 186 276 479 331 573
27 45 49 87 49 92 0 6 5 10 10 10 6 0 10 4 10 10 0 5 13 31 28 57 45 76 51
101 37 155 -18 73 -74 117 -153 120 -35 1 -93 -22 -117 -46 -9 -9 -149 -246
-189 -321 -6 -11 -16 -27 -22 -35 -10 -13 -31 -50 -93 -165 -9 -16 -18 -32
-21 -35 -3 -3 -11 -16 -19 -30 -46 -80 -87 -151 -113 -195 -16 -27 -32 -58
-35 -67 -3 -10 -9 -18 -14 -18 -5 0 -9 -4 -9 -9 0 -4 -23 -48 -52 -97 -110
-190 -158 -277 -158 -284 0 -5 -4 -10 -8 -12 -5 -1 -22 -28 -39 -58 -17 -30
-54 -96 -81 -145 -28 -50 -53 -108 -56 -129 -9 -70 36 -138 107 -162 21 -6
186 -10 467 -9 471 1 466 1 516 57 11 12 92 147 179 298 86 151 166 287 176
302 11 15 19 30 19 33 0 3 11 24 26 46 14 22 33 55 43 72 17 30 182 314 335
576 36 62 66 118 66 122 0 5 5 9 10 9 6 0 10 4 10 10 0 8 43 85 90 160 5 8 30
51 55 95 25 44 56 98 69 120 13 22 96 166 186 320 89 154 171 292 181 307 10
15 19 29 19 31 0 3 30 56 67 118 88 151 95 166 98 203 7 84 -69 166 -154 166
-25 -1 -60 -7 -77 -14z"/>
</g>
</svg>
